<?xml version="1.0" standalone="no"?>
<!DOCTYPE svg PUBLIC "-//W3C//DTD SVG 20010904//EN"
 "http://www.w3.org/TR/2001/REC-SVG-20010904/DTD/svg10.dtd">
<svg version="1.0" xmlns="http://www.w3.org/2000/svg"
 width="547.000000pt" height="215.000000pt" viewBox="0 0 547.000000 215.000000"
 preserveAspectRatio="xMidYMid meet">

<g transform="translate(0.000000,215.000000) scale(0.100000,-0.100000)"
fill="#fff" stroke="none">

<path d="M1505 1978 c-3 -7 -4 -413 -3 -903 l3 -990 233 -3 c216 -2 232 -1
233 15 0 10 1 38 2 63 l2 45 -160 5 -160 5 -3 750 c-1 413 0 760 3 773 5 22 8
22 160 22 85 0 155 3 156 8 0 4 2 23 4 41 1 19 -1 45 -6 58 l-9 23 -225 0
c-171 0 -227 -3 -230 -12z"/>

<path d="M2550 1925 l0 -65 155 0 155 0 0 -775 0 -775 -155 0 -155 0 0 -65 0
-65 233 2 232 3 0 900 0 900 -232 3 -233 2 0 -65z"/>

<path d="M166 1693 c-6 -168 -15 -346 -40 -838 -8 -143 -10 -264 -6 -268 4 -4
38 -7 76 -5 l69 3 6 145 c4 80 10 324 14 543 5 218 11 397 15 397 4 0 34 -80
67 -177 98 -289 164 -467 178 -482 9 -10 26 -11 64 -6 39 5 52 11 57 28 4 12
48 135 99 272 51 138 100 275 110 305 15 47 34 84 35 70 5 -50 29 -822 30
-917 0 -72 4 -143 10 -157 9 -24 14 -26 79 -26 38 0 72 3 74 7 4 7 -28 724
-50 1123 l-8 145 -96 3 c-69 2 -99 -1 -106 -10 -10 -14 -156 -402 -201 -536
-15 -46 -32 -83 -37 -82 -6 1 -15 16 -22 33 -13 35 -177 500 -196 557 l-12 35
-101 3 -101 3 -7 -168z"/>

<path d="M3530 1227 l0 -636 36 -7 c37 -7 111 0 122 11 4 4 9 131 12 283 l5
277 75 -4 c88 -4 130 -21 169 -68 15 -19 74 -134 131 -256 57 -122 107 -228
113 -234 12 -16 163 -18 172 -3 7 12 -167 379 -224 475 -20 32 -55 73 -78 90
-23 16 -42 33 -42 36 -1 3 16 11 37 17 90 27 167 102 205 200 19 48 23 166 7
223 -26 93 -103 164 -219 200 -56 17 -102 22 -293 26 l-228 6 0 -636z m465
469 c79 -34 115 -91 115 -186 0 -73 -23 -125 -75 -168 -49 -40 -90 -50 -220
-54 l-110 -3 -3 219 -2 219 127 -5 c88 -4 140 -10 168 -22z"/>

<path d="M4665 1838 c-3 -13 -4 -300 -3 -638 l3 -615 80 0 80 0 5 284 5 283
245 0 c135 0 251 3 257 5 9 3 13 27 13 69 l0 64 -257 2 -258 3 0 210 0 209
265 2 c146 1 268 2 273 3 8 1 10 103 1 125 -5 14 -46 16 -355 16 l-349 0 -5
-22z"/>
</g>
</svg>
